<svg xmlns="http://www.w3.org/2000/svg" xmlns:xlink="http://www.w3.org/1999/xlink" aria-hidden="true" role="img" class="iconify iconify--logos" width="35.93" height="32" preserveAspectRatio="xMidYMid meet" viewBox="0 0 256 228"><path fill="#00D8FF" d="M210.483 73.824a171.49 171.49 0 0 0-8.24-2.597c.465-1.9.893-3.777 1.273-5.621c6.238-30.281 2.16-54.676-11.769-62.708c-13.355-7.7-35.196.329-57.254 19.526a171.23 171.23 0 0 0-6.375 5.848a155.866 155.866 0 0 0-4.241-3.917C100.759 3.829 77.587-4.822 63.673 3.233C50.33 10.957 46.379 33.89 51.986 62.588a170.974 170.974 0 0 0 1.892 8.48c-3.28.932-6.445 1.924-9.474 2.98C17.309 83.498 0 98.307 0 113.668c0 15.865 18.582 31.778 46.812 41.427a145.52 145.52 0 0 0 6.921 2.165a167.467 167.467 0 0 0-2.01 9.138c-5.354 28.2-1.173 50.591 12.134 58.266c13.744 7.926 36.812-.22 59.273-19.855a145.567 145.567 0 0 0 5.342-4.923a168.064 168.064 0 0 0 6.92 6.314c21.758 18.722 43.246 26.282 56.54 18.586c13.731-7.949 18.194-32.003 12.4-61.268a145.016 145.016 0 0 0-1.535-6.842c1.62-.48 3.21-.974 4.76-1.488c29.348-9.723 48.443-25.443 48.443-41.52c0-15.417-17.868-30.326-45.517-39.844Zm-6.365 70.984c-1.4.463-2.836.91-4.3 1.345c-3.24-10.257-7.612-21.163-12.963-32.432c5.106-11 9.31-21.767 12.459-31.957a145.95 145.95 0 0 1 7.055 2.232c16.053 5.544 25.464 12.845 25.464 18.682s-10.169 13.76-27.715 19.53Zm-14.139 57.753c-7.067 4.088-20.37-1.376-35.89-15.378c-2.4-2.16-4.83-4.55-7.276-7.125a176.17 176.17 0 0 0 11.36-13.544a175.53 175.53 0 0 0 17.028-3.316c1.426 6.03 2.507 11.716 3.15 16.884c1.64 13.115.703 20.965-2.372 22.479Zm-24.162-82.37c2.83 4.9 5.478 9.867 7.907 14.862a169.24 169.24 0 0 1-12.862 3.147A195.44 195.44 0 0 0 167.4 107.72a192.376 192.376 0 0 0 6.417 12.47Zm-48.3 44.706a175.453 175.453 0 0 1-8.685-9.62a190.04 190.04 0 0 0 8.568.373a190.04 190.04 0 0 0 8.685-.39a165.06 165.06 0 0 1-8.568 9.636Zm-33.83-15.983a195.353 195.353 0 0 0-12.8-3.101a201.39 201.39 0 0 0 7.876-14.78a192.37 192.37 0 0 0 6.442 12.46c-2.004 3.566-3.908 7.019-5.698 10.42Zm-6.44-61.607a195.437 195.437 0 0 0 12.862-3.088a188.753 188.753 0 0 0-7.816 14.684a190.012 190.012 0 0 0-6.44-12.369c2.004-3.545 3.908-6.977 5.695-10.327Zm33.472-42.2c2.8 3.116 5.553 6.46 8.224 10.034A190.04 190.04 0 0 0 128.02 56c-2.955 0-5.894.118-8.796.35a171.87 171.87 0 0 1 8.263-10.236Zm-38.08 14.577a195.437 195.437 0 0 0 17.08 3.274A176.176 176.176 0 0 0 82.78 95.06c-2.399-4.856-4.629-9.686-6.676-14.446c2.54-.74 5.146-1.442 7.813-2.098Zm-13.687 50.073c-16.39-5.65-26.418-12.794-26.418-18.787c0-6.432 11.212-14.248 28.666-19.853c2.78-.89 5.695-1.713 8.698-2.47a176.173 176.173 0 0 0 12.698 32.07c-5.183 11.1-9.551 21.727-12.902 31.722c-4.148-1.164-8.098-2.417-11.742-3.782Zm15.738 80.718c-4.027-2.326-6.982-13.26-5.424-27.76c.53-4.93 1.504-10.34 2.817-16.034c5.685 1.32 11.792 2.424 18.225 3.268a176.168 176.168 0 0 0 11.36 13.59c-3.824 3.723-7.592 6.985-11.197 9.727c-5.17 3.931-10.76 6.627-15.78 7.209Zm109.466-14.637c1.766 14.165.56 25.445-3.46 27.77c-4.462 2.579-17.02-2.41-31.587-14.813a145.62 145.62 0 0 1-6.017-5.517a176.18 176.18 0 0 0 11.29-13.376a176.053 176.053 0 0 0 18.167-3.318c1.228 4.846 2.16 9.326 2.607 13.354Zm6.92-24.296a145.955 145.955 0 0 1-3.957 1.25a194.37 194.37 0 0 0-12.612-31.648a195.437 195.437 0 0 0 12.442-31.405c1.62.497 3.209 1.003 4.761 1.53c16.053 5.544 26.418 13.043 26.418 19.083c0 6.572-11.212 14.435-27.052 19.59Z"></path><path fill="#00D8FF" d="M128.221 94.665c11.144 0 20.177 9.034 20.177 20.177c0 11.144-9.033 20.178-20.177 20.178c-11.143 0-20.177-9.034-20.177-20.178c0-11.143 9.034-20.177 20.177-20.177Z"></path></svg>
